<svg width="37" height="38" viewBox="0 0 37 38" fill="none" xmlns="http://www.w3.org/2000/svg">
<path fill-rule="evenodd" clip-rule="evenodd" d="M21.3252 11.5215C21.3252 9.84439 19.9613 8.48051 18.2842 8.48051C16.6071 8.48051 15.2432 9.84439 15.2432 11.5215C15.2432 13.1986 16.6071 14.5625 18.2842 14.5625C19.9613 14.5625 21.3252 13.1986 21.3252 11.5215ZM24.3664 11.5214C24.3664 14.8757 21.6386 17.6034 18.2844 17.6034C14.9302 17.6034 12.2024 14.8757 12.2024 11.5214C12.2024 8.16722 14.9302 5.43945 18.2844 5.43945C21.6386 5.43945 24.3664 8.16722 24.3664 11.5214ZM7.64087 31.2874C7.64087 25.4183 12.4167 20.644 18.2843 20.644C24.1519 20.644 28.9278 25.4183 28.9278 31.2874C28.9278 32.1268 28.2482 32.8079 27.4073 32.8079C26.5665 32.8079 25.8868 32.1268 25.8868 31.2874C25.8868 27.0954 22.4763 23.685 18.2843 23.685C14.0923 23.685 10.6819 27.0954 10.6819 31.2874C10.6819 32.1268 10.0022 32.8079 9.16137 32.8079C8.32053 32.8079 7.64087 32.1268 7.64087 31.2874Z" fill="black"/>
<mask id="mask0_174_3630" style="mask-type:alpha" maskUnits="userSpaceOnUse" x="7" y="5" width="22" height="28">
<path fill-rule="evenodd" clip-rule="evenodd" d="M21.3252 11.5215C21.3252 9.84439 19.9613 8.48051 18.2842 8.48051C16.6071 8.48051 15.2432 9.84439 15.2432 11.5215C15.2432 13.1986 16.6071 14.5625 18.2842 14.5625C19.9613 14.5625 21.3252 13.1986 21.3252 11.5215ZM24.3664 11.5214C24.3664 14.8757 21.6386 17.6034 18.2844 17.6034C14.9302 17.6034 12.2024 14.8757 12.2024 11.5214C12.2024 8.16722 14.9302 5.43945 18.2844 5.43945C21.6386 5.43945 24.3664 8.16722 24.3664 11.5214ZM7.64087 31.2874C7.64087 25.4183 12.4167 20.644 18.2843 20.644C24.1519 20.644 28.9278 25.4183 28.9278 31.2874C28.9278 32.1268 28.2482 32.8079 27.4073 32.8079C26.5665 32.8079 25.8868 32.1268 25.8868 31.2874C25.8868 27.0954 22.4763 23.685 18.2843 23.685C14.0923 23.685 10.6819 27.0954 10.6819 31.2874C10.6819 32.1268 10.0022 32.8079 9.16137 32.8079C8.32053 32.8079 7.64087 32.1268 7.64087 31.2874Z" fill="white"/>
</mask>
<g mask="url(#mask0_174_3630)">
<rect x="0.0383301" y="0.877686" width="36.4919" height="36.4919" fill="#C6C6C6"/>
</g>
</svg>
