<svg width="25" height="26" viewBox="0 0 25 26" fill="none" xmlns="http://www.w3.org/2000/svg">
<path fill-rule="evenodd" clip-rule="evenodd" d="M14.3977 7.82648C14.3977 6.69216 13.4752 5.7697 12.3409 5.7697C11.2066 5.7697 10.2841 6.69216 10.2841 7.82648C10.2841 8.96079 11.2066 9.88326 12.3409 9.88326C13.4752 9.88326 14.3977 8.96079 14.3977 7.82648ZM16.4544 7.82646C16.4544 10.0951 14.6094 11.94 12.3408 11.94C10.0722 11.94 8.22724 10.0951 8.22724 7.82646C8.22724 5.55782 10.0722 3.71289 12.3408 3.71289C14.6094 3.71289 16.4544 5.55782 16.4544 7.82646ZM5.14209 21.1956C5.14209 17.226 8.37227 13.9968 12.3408 13.9968C16.3094 13.9968 19.5396 17.226 19.5396 21.1956C19.5396 21.7632 19.0799 22.224 18.5112 22.224C17.9425 22.224 17.4828 21.7632 17.4828 21.1956C17.4828 18.3603 15.1761 16.0536 12.3408 16.0536C9.50555 16.0536 7.19887 18.3603 7.19887 21.1956C7.19887 21.7632 6.73918 22.224 6.17048 22.224C5.60178 22.224 5.14209 21.7632 5.14209 21.1956Z" fill="black"/>
<mask id="mask0_180_1870" style="mask-type:alpha" maskUnits="userSpaceOnUse" x="5" y="3" width="15" height="20">
<path fill-rule="evenodd" clip-rule="evenodd" d="M14.3977 7.82648C14.3977 6.69216 13.4752 5.7697 12.3409 5.7697C11.2066 5.7697 10.2841 6.69216 10.2841 7.82648C10.2841 8.96079 11.2066 9.88326 12.3409 9.88326C13.4752 9.88326 14.3977 8.96079 14.3977 7.82648ZM16.4544 7.82646C16.4544 10.0951 14.6094 11.94 12.3408 11.94C10.0722 11.94 8.22724 10.0951 8.22724 7.82646C8.22724 5.55782 10.0722 3.71289 12.3408 3.71289C14.6094 3.71289 16.4544 5.55782 16.4544 7.82646ZM5.14209 21.1956C5.14209 17.226 8.37227 13.9968 12.3408 13.9968C16.3094 13.9968 19.5396 17.226 19.5396 21.1956C19.5396 21.7632 19.0799 22.224 18.5112 22.224C17.9425 22.224 17.4828 21.7632 17.4828 21.1956C17.4828 18.3603 15.1761 16.0536 12.3408 16.0536C9.50555 16.0536 7.19887 18.3603 7.19887 21.1956C7.19887 21.7632 6.73918 22.224 6.17048 22.224C5.60178 22.224 5.14209 21.7632 5.14209 21.1956Z" fill="white"/>
</mask>
<g mask="url(#mask0_180_1870)">
<rect y="0.627808" width="24.6814" height="24.6814" fill="white"/>
</g>
</svg>
