<svg width="14" height="14" viewBox="0 0 14 14" fill="none" xmlns="http://www.w3.org/2000/svg">
<path fill-rule="evenodd" clip-rule="evenodd" d="M10.2017 12.1154C10.1125 12.1154 10.0227 12.0945 9.94024 12.0516L7.06046 10.547L4.18125 12.0516C3.99036 12.1504 3.75993 12.1335 3.58711 12.007C3.41316 11.8805 3.32675 11.6664 3.36346 11.4546L3.91185 8.2761L1.58499 6.02548C1.43024 5.87581 1.37433 5.65103 1.44041 5.44546C1.50649 5.24101 1.68326 5.09134 1.89675 5.06085L5.11595 4.59321L6.55499 1.69819C6.74588 1.31414 7.37561 1.31414 7.5665 1.69819L9.00554 4.59321L12.2247 5.06085C12.4382 5.09134 12.615 5.24101 12.6811 5.44546C12.7472 5.65103 12.6912 5.87581 12.5365 6.02548L10.2096 8.2761L10.758 11.4546C10.7947 11.6664 10.7078 11.8805 10.5344 12.007C10.4361 12.0793 10.3192 12.1154 10.2017 12.1154Z" fill="black"/>
<mask id="mask0_176_309" style="mask-type:alpha" maskUnits="userSpaceOnUse" x="1" y="1" width="12" height="12">
<path fill-rule="evenodd" clip-rule="evenodd" d="M10.2017 12.1154C10.1125 12.1154 10.0227 12.0945 9.94024 12.0516L7.06046 10.547L4.18125 12.0516C3.99036 12.1504 3.75993 12.1335 3.58711 12.007C3.41316 11.8805 3.32675 11.6664 3.36346 11.4546L3.91185 8.2761L1.58499 6.02548C1.43024 5.87581 1.37433 5.65103 1.44041 5.44546C1.50649 5.24101 1.68326 5.09134 1.89675 5.06085L5.11595 4.59321L6.55499 1.69819C6.74588 1.31414 7.37561 1.31414 7.5665 1.69819L9.00554 4.59321L12.2247 5.06085C12.4382 5.09134 12.615 5.24101 12.6811 5.44546C12.7472 5.65103 12.6912 5.87581 12.5365 6.02548L10.2096 8.2761L10.758 11.4546C10.7947 11.6664 10.7078 11.8805 10.5344 12.007C10.4361 12.0793 10.3192 12.1154 10.2017 12.1154Z" fill="white"/>
</mask>
<g mask="url(#mask0_176_309)">
<rect x="0.28418" y="0.254639" width="13.5545" height="13.5545" fill="#00AC4E"/>
</g>
</svg>
